<svg width="6" height="3" viewBox="0 0 6 3" fill="none" xmlns="http://www.w3.org/2000/svg">
<path d="M4.24708 0.797738L4.23948 0.812373C3.70729 1.81758 2.27566 1.81072 1.75087 0.797915C1.6665 0.634203 1.53676 0.537637 1.39242 0.50168C1.25055 0.466339 1.10191 0.491215 0.977355 0.555351C0.8528 0.619489 0.746197 0.726053 0.692565 0.862135C0.637988 1.00061 0.641281 1.16245 0.725617 1.32643L0.72568 1.32656C1.68163 3.17903 4.31996 3.17911 5.27503 1.32652C5.35962 1.16254 5.36307 1.00062 5.30848 0.862021C5.25483 0.725822 5.14808 0.619165 5.02328 0.554978C4.89848 0.490786 4.74952 0.46592 4.60725 0.501271C4.46252 0.537235 4.3322 0.633829 4.24708 0.797738ZM5.18614 1.2807C4.26834 3.06102 1.73326 3.06102 0.814545 1.2807L4.40191 0.743826C4.73531 0.345803 5.45444 0.760701 5.18614 1.2807Z" fill="#5718FF" stroke="#5718FF" stroke-width="0.2"/>
</svg>
